<svg width="100" height="49" viewBox="0 0 100 49" fill="none" xmlns="http://www.w3.org/2000/svg">
<g clip-path="url(#clip0_726_229)">
<path d="M40.1759 41.6322C39.9432 41.2138 39.6432 40.9995 39.1677 40.9995C38.6676 40.9995 38.1186 41.3648 38.1186 41.9547C38.1186 42.4792 38.6003 42.7547 38.9921 42.9139L39.4412 43.1037C40.3351 43.4752 41.0005 44.0018 41.0005 45.1243C41.0005 46.3448 40.1188 47.2204 38.9921 47.2204C37.9778 47.2204 37.1859 46.4183 37.0512 45.3386L37.8431 45.161C37.8349 45.8999 38.3839 46.4346 39.0595 46.4346C39.7351 46.4346 40.2167 45.8284 40.2167 45.1243C40.2167 44.4018 39.6759 44.0916 39.135 43.8507L38.7023 43.6548C37.9859 43.3262 37.3328 42.8894 37.3328 41.9547C37.3328 40.8668 38.2349 40.2158 39.184 40.2158C39.8841 40.2158 40.4596 40.5811 40.8005 41.2322L40.1759 41.6322Z" fill="#F9F9F9"/>
<path d="M43.5515 47.0763H42.7678V41.1248H41.2779V40.3574H45.0435V41.1248H43.5515V47.0763Z" fill="#F9F9F9"/>
<path d="M46.3353 40.3582V44.3218C46.3353 45.4199 46.6435 46.4342 47.8518 46.4342C49.06 46.4342 49.3682 45.4199 49.3682 44.3218V40.3582H50.1519V44.6075C50.1519 46.0873 49.2927 47.22 47.8518 47.22C46.4108 47.22 45.5516 46.0873 45.5516 44.6075V40.3582H46.3353Z" fill="#F9F9F9"/>
<path d="M51.9533 46.3101H52.2289C53.8269 46.3101 55.2107 45.6692 55.2107 43.7181C55.2107 41.7567 53.8269 41.124 52.2289 41.124H51.9533V46.3101ZM51.1696 40.3586H52.4697C54.3964 40.3586 55.9944 41.4444 55.9944 43.6813C55.9944 45.9713 54.427 47.0755 52.4432 47.0755H51.1696V40.3586Z" fill="#F9F9F9"/>
<path d="M57.5382 47.0773H56.7544V40.3584H57.5382V47.0773Z" fill="#F9F9F9"/>
<path d="M64.0697 43.7171C64.0697 42.2374 63.037 40.9985 61.5614 40.9985C60.0878 40.9985 59.055 42.2374 59.055 43.7171C59.055 45.2498 60.2041 46.4357 61.5614 46.4357C62.9206 46.4357 64.0697 45.2498 64.0697 43.7171ZM64.8535 43.7171C64.8535 45.7131 63.3799 47.2173 61.5614 47.2173C59.7449 47.2173 58.2713 45.7131 58.2713 43.7171C58.2713 41.7924 59.7633 40.2168 61.5614 40.2168C63.3615 40.2168 64.8535 41.7924 64.8535 43.7171Z" fill="#F9F9F9"/>
<path d="M73.7454 43.6905V43.9579C73.7454 45.8029 72.529 47.2194 70.7717 47.2194C69.0124 47.2194 67.5959 45.5968 67.5959 43.7354C67.5959 41.8026 69.0471 40.2148 70.8533 40.2148C71.8289 40.2148 72.7964 40.6862 73.4127 41.5169L72.8637 42.0782C72.4127 41.4189 71.6534 40.9822 70.888 40.9822C69.4798 40.9822 68.3797 42.2027 68.3797 43.7069C68.3797 45.1172 69.4634 46.452 70.8207 46.452C71.7963 46.452 72.8453 45.5539 72.878 44.4559H71.2534V43.6905H73.7454Z" fill="#F9F9F9"/>
<path d="M78.2297 43.0666V40.3582H79.0135V47.0751H78.2297V43.8524H75.2397V47.0751H74.456V40.3582H75.2397V43.0666H78.2297Z" fill="#F9F9F9"/>
<path d="M80.9072 47.0773H80.1235V40.3584H80.9072V47.0773Z" fill="#F9F9F9"/>
<path d="M82.7976 46.3277H83.3977C84.1222 46.3277 84.8794 46.0971 84.8794 45.1419C84.8794 44.199 83.9814 44.001 83.2813 44.001H82.7976V46.3277ZM82.7976 43.3356H82.9977C83.7406 43.3356 84.3467 43.1744 84.3467 42.2111C84.3467 41.2661 83.7467 41.1069 83.014 41.1069H82.7976V43.3356ZM82.0139 40.3579H82.7813C83.963 40.3579 85.0794 40.6864 85.0794 42.2029C85.0794 42.6907 84.8304 43.2622 84.4039 43.4765V43.4928C85.1468 43.6377 85.6632 44.4112 85.6632 45.195C85.6632 46.542 84.5896 47.0767 83.4814 47.0767H82.0139V40.3579Z" fill="#F9F9F9"/>
<path d="M87.3233 46.3101H89.2317V47.0755H86.5396V40.3586H87.3233V46.3101Z" fill="#F9F9F9"/>
<path d="M90.5039 47.0773H89.7203V40.3584H90.5039V47.0773Z" fill="#F9F9F9"/>
<path d="M28.4048 35.8811C30.3356 35.1239 32.497 33.0585 33.4501 30.2705H28.9028V29.2521H34.7788C34.6645 29.7746 34.342 31.3175 33.0991 33.132C33.6155 33.5728 34.8931 34.6831 36.0565 35.9077L35.2319 36.7975C34.8747 36.3485 34.2379 35.5526 32.5052 33.9361C31.8949 34.6831 30.6785 36.0322 29.009 36.7588L28.4048 35.8811Z" fill="#F9F9F9"/>
<path d="M39.0893 32.0378C39.4648 32.2072 40.1996 32.544 41.118 33.3645C41.8875 32.3093 42.0875 31.3072 42.1671 30.9255H39.1077C38.2402 32.2072 37.4973 32.7583 36.8075 33.1869L36.1523 32.4011C37.681 31.55 38.477 30.4214 39.0791 28.7457L40.1384 28.96C39.971 29.3539 39.8669 29.5968 39.6751 29.954H43.3998C43.1712 31.4194 42.4202 35.7116 37.2626 36.9954L36.7034 36.0688C37.2953 35.9647 38.7831 35.7034 40.418 34.1604C39.5444 33.3379 38.7485 32.9359 38.4056 32.7583L39.0893 32.0378Z" fill="#F9F9F9"/>
<path d="M44.0667 35.5723C47.3628 35.2825 48.8589 34.2151 49.9937 30.4862L50.9407 30.9352C49.7508 34.4784 48.2731 36.2173 44.3116 36.6949L44.0667 35.5723ZM50.6325 29.9719C50.4325 29.129 50.2651 28.7473 50.1773 28.5412L50.8876 28.3718C51.1325 28.9126 51.2978 29.5311 51.3591 29.7556L50.6325 29.9719ZM49.3569 30.1678C49.2344 29.5311 49.1222 29.1576 48.9446 28.6616L49.663 28.4942C49.8814 29.0555 49.961 29.2984 50.1079 29.9801L49.3569 30.1678ZM46.026 33.264C45.0116 32.6721 43.9973 32.319 43.5687 32.1782L43.9687 31.2067C44.2953 31.3067 45.5974 31.721 46.4281 32.2068L46.026 33.264ZM46.6995 31.0944C45.8321 30.625 45.0116 30.3087 44.2585 30.074L44.679 29.0922C45.9974 29.5127 46.6546 29.8311 47.1445 30.074L46.6995 31.0944Z" fill="#F9F9F9"/>
<path d="M60.0955 35.5723C63.3916 35.2825 64.8877 34.2151 66.0225 30.4862L66.9695 30.9352C65.7796 34.4784 64.3019 36.2173 60.3404 36.6949L60.0955 35.5723ZM66.6613 29.9719C66.4613 29.129 66.2939 28.7473 66.2061 28.5412L66.9164 28.3718C67.1613 28.9126 67.3266 29.5311 67.3879 29.7556L66.6613 29.9719ZM65.3857 30.1678C65.2632 29.5311 65.151 29.1576 64.9734 28.6616L65.6918 28.4942C65.9102 29.0555 65.9898 29.2984 66.1368 29.9801L65.3857 30.1678ZM62.0548 33.264C61.0404 32.6721 60.0261 32.319 59.5975 32.1782L59.9975 31.2067C60.3241 31.3067 61.6262 31.721 62.4569 32.2068L62.0548 33.264ZM62.7283 31.0944C61.863 30.625 61.0404 30.3087 60.2873 30.074L60.7078 29.0922C62.0283 29.5127 62.6834 29.8311 63.1733 30.074L62.7283 31.0944Z" fill="#F9F9F9"/>
<path d="M74.909 29.7188C74.8477 29.3433 74.6804 28.7167 74.5334 28.3616L75.2498 28.2228C75.4151 28.682 75.4947 28.9616 75.6172 29.5413L74.909 29.7188ZM73.9905 28.2963C74.1497 28.6902 74.2354 29.0086 74.3579 29.5984L74.0946 29.6352V29.6535H74.6191C74.4722 33.7212 72.5578 36.0295 69.2779 36.7806L68.7268 35.7785C70.1351 35.4887 73.0292 34.8703 73.5007 30.6638H67.9656V29.6535H73.5701C73.4925 29.1861 73.4129 28.9065 73.2394 28.4269L73.9905 28.2963Z" fill="#F9F9F9"/>
<path d="M81.948 32.5242C81.948 33.9937 81.6949 35.1427 80.6785 35.9653C79.8846 36.6122 79.0702 36.7776 77.3048 36.9837L76.9823 35.9551C79.2213 35.8061 80.9173 35.4326 80.9173 33.0201V28.9708H81.948V32.5242ZM77.5334 34.2182H76.5211V29.1402H77.5334V34.2182Z" fill="#F9F9F9"/>
<path d="M87.5784 28.522C87.509 28.8302 87.4294 29.1669 87.2191 29.7098H90.9888V30.6344H88.0845V31.9631H90.7704V32.8876H88.0845V34.2265H90.7704V35.1429H88.0845V37.239H87.1416V30.6344H86.8089C86.2232 31.7855 85.7517 32.3182 85.4802 32.6366L84.8843 31.8406C85.8394 30.8508 86.3987 29.3649 86.6089 28.4097L87.5784 28.522ZM83.8107 32.3284H83.7924C83.4964 32.7407 83.2576 32.9734 83.0229 33.1979L82.6208 32.2733C83.5903 31.2998 84.1761 30.2344 84.5618 28.4179L85.4884 28.5873C85.3659 29.0363 85.1659 29.8139 84.7353 30.7385V37.239H83.8107V32.3284Z" fill="#F9F9F9"/>
<path d="M93.4797 31.1679H97.7474V29.578H93.4797V31.1679ZM92.6164 28.7004H98.5965V32.0496H92.6164V28.7004ZM96.7045 35.8826H98.5658V33.6661H96.7045V35.8826ZM91.7816 32.8048H95.1819V37.1357H94.343V36.752H92.6164V37.201H91.7816V32.8048ZM92.6164 35.8826H94.3492V33.6661H92.6164V35.8826ZM95.8595 32.8048H99.4087V37.201H98.57V36.752H96.7045V37.201H95.8595V32.8048Z" fill="#F9F9F9"/>
<path d="M51.7658 35.3072C54.4088 33.3867 55.3007 31.6498 55.4395 31.3539L51.7188 31.3498V30.3211H56.0416V28.7557H57.0151V30.3211H58.9969V31.3743H57.0233L57.0253 36.8523H56.0416L56.0436 32.1948C56.0436 32.1948 55.2538 34.1031 52.3393 36.1951L51.7658 35.3072Z" fill="#F9F9F9"/>
<path d="M28.119 38.473H100V38.5914H28.119" fill="#F9F9F9"/>
<path d="M28.9086 14.2166V14.3125L28.7535 14.3656L28.329 14.3554L27.9044 14.3738L27.882 14.3309L28.0779 14.2084C28.3616 14.2615 28.6086 14.1207 28.8678 14.1921L28.9086 14.2166Z" fill="#F9F9F9"/>
<path d="M18.6988 23.6876L18.6253 23.7753L18.4865 23.959L18.3885 24.0713L18.0946 24.308L17.7946 24.506C17.5987 24.6815 17.3293 24.8142 17.0109 24.8652L16.6272 24.9081C16.4068 24.8836 16.1639 24.8836 15.9843 24.7856L15.7883 24.7244C15.5291 24.5897 15.4291 24.4917 15.3312 24.2101L15.323 24.1407H15.3067L15.2903 23.9223L15.2658 23.861L15.225 23.3835V23.312H15.2332L15.2414 22.963L15.272 22.8936L15.3067 22.8242H15.323L15.3312 22.712H15.3373L15.3638 22.6222V22.3017L15.3965 22.2405L15.4108 22.1609L15.4291 22.0221H15.4455L15.4536 21.9425H15.4618L15.4863 21.865V21.8119H15.5026L15.5189 21.718H15.5332L15.6822 21.4384L15.772 21.3241C15.9679 21.2037 16.1373 21.0261 16.4476 21.0098L16.8068 20.8873C17.0027 20.8976 17.1823 20.9486 17.3783 20.9853L17.7865 21.1833L18.0293 21.4466H18.0457L18.064 21.4996H18.0783L18.1518 21.6384C18.4722 22.263 18.6151 22.6589 18.6743 23.3835L18.6824 23.461H18.6988V23.6876ZM19.3172 23.7039L19.0988 23.5835L19.0335 23.5304L18.9845 23.4855L18.9518 23.3467H18.9335L18.911 22.963H18.9029L18.8865 22.861L18.86 22.7018L18.8294 22.4487H18.8131L18.7886 22.3262H18.7804L18.7478 22.2221L18.7151 22.0997L18.6498 21.9078H18.6335L18.5947 21.8037C18.2865 21.0506 18.115 20.8833 17.3293 20.6894L17.0844 20.6098C16.8231 20.5996 16.5374 20.6098 16.3027 20.6975C16.1149 20.6771 16.0149 20.7833 15.8863 20.8527L15.5679 21.0792L15.4761 21.22L15.4536 21.2894L15.3557 21.42L15.3067 21.4813L15.2822 21.5772H15.272L15.2332 21.6548V21.6813L15.2087 21.769H15.2005L15.176 21.8997H15.1597V21.9425L15.1434 22.0997H15.1271L15.1107 22.3017H15.0944L15.0699 22.414H15.0617L15.0373 22.5609H15.0291L15.0209 22.6671H15.0046V22.7548H14.9883L15.0046 22.9018L14.8413 23.1732H14.8332L14.8413 23.261L14.8495 23.2855L15.0046 23.4855H14.9883V23.5488L14.9801 23.7651L15.0046 23.8978L15.0291 24.0366L15.0373 24.0794H15.0536L15.0617 24.159L15.0944 24.2631L15.1271 24.3325L15.2577 24.5264L15.5332 24.7856L15.7945 24.9958C16.0639 25.0652 16.3169 25.2305 16.6435 25.153C16.8313 25.1265 17.068 25.1346 17.1905 25.0122L17.4191 24.9693L17.5987 24.9183L17.9803 24.7162L18.2498 24.5142C18.4375 24.4121 18.5273 24.2386 18.6824 24.1141L18.8294 23.9304L18.8865 23.8794L19.2213 23.8366L19.3172 23.7039Z" fill="#F9F9F9"/>
<path d="M11.9386 21.3155L11.9631 21.3237H11.955V21.34H11.9468L11.8897 21.5584H11.8733L11.8488 21.6911H11.8407L11.8162 21.8543H11.808L11.7917 21.9523L11.7672 22.1013H11.7509V22.1788H11.7345L11.6774 22.2931L11.5794 22.2319L11.5733 22.1625H11.5876L11.6039 21.9176H11.6202L11.6447 21.8054H11.6529L11.6611 21.7074H11.6774L11.6937 21.5788H11.71L11.7509 21.4461L11.7672 21.3931L11.7999 21.34V21.3074L11.8162 21.291L11.8897 21.238L11.9386 21.3155Z" fill="#F9F9F9"/>
<path d="M12.1344 21.8735L12.1425 21.9103L12.1589 21.996H12.1425L12.118 22.1368L11.9792 22.1776L11.9466 21.996L11.9792 21.9184L12.1344 21.8735Z" fill="#F9F9F9"/>
<path d="M12.4363 22.057L12.469 22.1101V22.2489L12.4119 22.2999L12.2812 22.1795L12.2894 22.1019L12.3139 22.0815L12.4363 22.057Z" fill="#F9F9F9"/>
<path d="M12.8926 22.3099L12.909 22.4058L12.86 22.467L12.7232 22.414L12.6885 22.3262L12.6967 22.2323H12.8192L12.8926 22.3099Z" fill="#F9F9F9"/>
<path d="M16.179 23.0683L16.13 23.0071L16.1137 22.8764L16.1709 22.8499L16.1954 22.8764L16.2035 22.9193L16.179 23.0683ZM16.375 22.8418L16.3403 22.6581H16.326L16.3096 22.458L16.2607 22.3621L16.13 22.2295C15.8688 22.1437 15.7872 22.3703 15.6749 22.4927L15.6239 22.5621L15.5994 22.6499H15.5912V22.703L15.5667 22.7805H15.5524L15.5361 23.1377L15.5667 23.4602L15.5912 23.5051L15.7708 23.7928L16.1137 23.7745L16.2117 23.7132L16.326 23.5051H16.3403L16.3586 23.4091C16.3403 23.1989 16.3994 23.0438 16.375 22.8418Z" fill="#F9F9F9"/>
<path d="M9.31286 24.4289L9.34552 24.4819L9.40879 24.5779L9.42716 24.6717L9.32919 24.786L8.86385 24.9085L8.60464 24.7779L8.63526 24.7085H8.64342L8.66996 24.6023H8.68628L8.70057 24.5064L8.79037 24.3921L9.17408 24.3146L9.31286 24.4289Z" fill="#F9F9F9"/>
<path d="M17.7853 27.5162C17.4506 27.5244 17.1342 27.5162 16.8076 27.5162L16.4648 27.4733L16.3994 27.4121L16.4546 27.3856L17.1893 27.4631C17.3934 27.4019 17.5893 27.4917 17.7853 27.4999V27.5162ZM24.7736 28.355C24.4735 28.2489 24.1225 28.2489 23.8347 28.1367C23.5592 28.1081 23.3041 28.0224 23.004 28.0469L22.7122 27.9877L22.4346 27.9346C22.2223 27.8917 21.9938 27.8815 21.7652 27.8652C21.5692 27.7591 21.2917 27.8285 21.1121 27.7264C20.7855 27.708 20.5345 27.5529 20.2079 27.5938C19.9773 27.5856 19.7915 27.4999 19.5466 27.5244C19.3119 27.455 19.0241 27.4917 18.7894 27.4468L18.3465 27.4121C18.0384 27.3774 17.7118 27.3427 17.3934 27.3774C17.1158 27.3243 16.824 27.2815 16.5117 27.2896L16.1137 27.2284L16.0402 27.3856H16.0239L16.0321 27.4733L16.228 27.6999C16.4729 27.7672 16.7587 27.8652 17.0342 27.7876C17.2546 27.7958 17.4669 27.8285 17.6791 27.804C17.8832 27.8387 18.0955 27.7958 18.2914 27.8489L18.6894 27.8815C18.9507 27.8999 19.2037 27.8734 19.4568 27.9162C19.6528 27.8652 19.816 27.9611 20.012 27.9693L20.712 28.0224C20.9508 28.0999 21.2345 28.0571 21.4713 28.1183C21.6917 28.1264 21.9121 28.1264 22.1162 28.1795L22.5734 28.2224L22.9551 28.302L23.2979 28.355C23.5429 28.4408 23.8347 28.4326 24.0817 28.5204L24.5042 28.6061L24.8552 28.5612L24.8715 28.5367L24.7736 28.355Z" fill="#F9F9F9"/>
<path d="M14.8664 28.554C15.1113 28.6316 15.4195 28.5704 15.6665 28.6847L16.0155 28.7643L16.2359 28.8418C16.44 28.8418 16.6441 28.9112 16.8543 28.9194L17.0278 29.1133V29.2174C16.7176 29.199 16.4584 29.0765 16.1542 29.0439L15.7624 28.9541C15.297 28.9377 14.9072 28.6847 14.4255 28.7888L14.1398 28.6071L14.1092 28.501L14.4174 28.5173L14.8664 28.554Z" fill="#F9F9F9"/>
<path d="M24.4153 30.9C24.203 30.9877 23.9764 30.8918 23.7723 30.8653C23.4764 30.7428 23.1274 30.6652 22.8253 30.5509V30.5428L22.411 30.4734C22.1967 30.3938 21.962 30.3611 21.7232 30.3244L21.3497 30.2101C21.015 30.0611 20.5986 29.9407 20.2496 29.8182C19.9047 29.7652 19.6128 29.6366 19.3026 29.5386L18.9761 29.3917L18.9842 29.3651C19.172 29.3468 19.3189 29.4264 19.4822 29.4529C19.719 29.5754 20.0353 29.608 20.2966 29.6876L20.566 29.7223C20.8027 29.7937 21.0803 29.8182 21.2926 29.9325C21.4967 29.9836 21.6497 30.1142 21.8804 30.1325C22.1579 30.2366 22.4743 30.2979 22.7519 30.3938L23.2662 30.4979C23.454 30.5509 23.6642 30.5673 23.8377 30.6469L24.1071 30.7265L24.4234 30.8551H24.4316L24.4153 30.9ZM24.8724 30.8836L24.75 30.7428L24.4724 30.5428C24.2928 30.5509 24.1948 30.4285 24.0152 30.4469C23.8683 30.3775 23.7458 30.2795 23.5417 30.2897C23.2233 30.1754 22.8417 30.1223 22.4906 30.0529L22.1151 29.8876L21.7008 29.757L21.3987 29.6366L21.0068 29.5223C20.5496 29.3733 20.0619 29.3202 19.5883 29.1896C19.3843 29.1304 19.1312 29.1468 18.9516 29.0529C18.1617 28.9304 17.4351 28.7039 16.6698 28.5447C16.5044 28.4406 16.2432 28.4569 16.0493 28.3793L15.8615 28.3447C15.6738 28.3018 15.4533 28.2916 15.2737 28.2304L15.0778 28.1977L14.6533 28.065C14.4512 27.9426 14.1736 28.0487 14.0002 28.1263L13.9695 28.1691L13.994 28.3018L14.2124 28.214L14.5308 28.3018C14.8165 28.3365 15.0696 28.4161 15.3309 28.4936L15.4452 28.5365L15.7227 28.6406C15.9656 28.6671 16.2126 28.6406 16.4146 28.7365C16.6698 28.7733 16.88 28.8937 17.1494 28.8324L17.2392 28.8937C17.4188 28.9018 17.5576 28.9998 17.6964 29.061L17.5412 29.1386L17.4188 29.2876L17.4433 29.3039C17.6617 29.3815 17.8923 29.4162 18.1188 29.4958C18.3964 29.5386 18.6332 29.6794 18.9271 29.6958C19.3679 29.8448 19.8149 29.9489 20.2496 30.0978C20.4598 30.1672 20.7293 30.2019 20.9252 30.2979L21.0966 30.3611C21.315 30.3938 21.464 30.5244 21.6926 30.5346C21.9355 30.604 22.1804 30.6652 22.4192 30.7428L22.9233 30.8755C23.2417 30.953 23.5846 31.0142 23.8846 31.1183C24.0969 31.1347 24.2846 31.1102 24.4724 31.1714L24.8724 31.0142V30.8836Z" fill="#F9F9F9"/>
<path d="M8.91319 29.705L8.93768 29.7927L8.88053 29.8438L8.44785 29.8091L8.43968 29.705L8.48867 29.6356L8.81522 29.5989L8.91319 29.705Z" fill="#F9F9F9"/>
<path d="M20.8107 32.9146L20.7617 32.8983L20.2882 32.6881L19.8637 32.4697L19.4494 32.2513L18.9841 32.088C18.7718 31.99 18.5187 31.937 18.3146 31.8247C18.1024 31.7635 17.9064 31.6941 17.7452 31.5614L17.4023 31.4492C17.2309 31.3798 17.1002 31.2655 16.9125 31.2226L16.6594 31.1349L16.1961 30.9083L15.992 30.7675L16.0491 30.6981C16.3267 30.7267 16.5145 30.9002 16.7982 30.9349L16.9043 30.9696C17.1492 31.0757 17.4268 31.1349 17.6452 31.2737C17.835 31.3349 18.037 31.4145 18.2003 31.4921L18.5922 31.6941L18.8289 31.8247C19.0249 31.9023 19.2453 31.9982 19.4065 32.1125L19.7678 32.2697L20.0025 32.3635L20.4923 32.635L20.8107 32.8697V32.9146ZM21.8618 33.3677L21.619 33.1779L21.3638 32.9391L20.8515 32.5819C20.6311 32.3921 20.3066 32.3044 20.076 32.1125L19.7576 31.9472L19.6188 31.886L19.4576 31.788C19.2698 31.7798 19.1963 31.641 19.0412 31.6063L18.7065 31.4594L18.2656 31.2818L17.884 31.1349L17.5656 31.0063C17.3839 30.8818 17.1492 30.8206 16.937 30.7348C16.7267 30.7083 16.5451 30.6124 16.3492 30.5695L16.3267 30.541L15.8369 30.5246L15.745 30.6287L15.7226 30.7267H15.7144L15.7634 30.9002L16.0083 31.1186C16.3185 31.2328 16.6104 31.3961 16.9227 31.5002L17.3615 31.6839C17.5248 31.8166 17.7921 31.8329 17.9799 31.9288C18.1452 32.088 18.4289 32.0758 18.6187 32.2166C18.9187 32.2513 19.08 32.4534 19.3841 32.488L19.4065 32.5125L19.8066 32.7044L20.1005 32.8187C20.3535 32.8901 20.5821 32.9922 20.7617 33.1493C20.9495 33.1657 21.0965 33.2718 21.2761 33.3146L21.4455 33.4126L21.8292 33.4534L21.872 33.3942L21.8618 33.3677Z" fill="#F9F9F9"/>
<path d="M13.3903 34.8505H13.423L13.472 34.9199C13.6271 34.9995 13.7557 35.1036 13.9434 35.1464L14.1333 35.3117L14.1251 35.4097L14.1088 35.4424L14.2863 35.5485C14.4986 35.5832 14.6374 35.6893 14.8251 35.7301L14.9558 35.8444L15.0211 35.9853L15.0619 36.0179L15.0946 36.0975L15.1109 36.2281H15.1272C15.4395 36.5751 15.613 36.8506 15.9171 37.1874L15.9905 37.318H16.0089C16.2232 37.6119 16.6253 37.9303 16.7335 38.2691L16.8233 38.4079C16.9539 38.5916 17.1457 38.8835 17.1988 39.1161L17.2233 39.4366L17.2478 39.559H17.2559L17.2968 39.6304L17.3294 39.8733H17.3437L17.4029 40.0121L17.4355 40.0835C17.4825 40.2632 17.6948 40.3305 17.7621 40.6326L17.7866 40.6856L17.8172 40.8142L17.8356 40.8856L17.8601 41.2428L17.9397 41.453L17.9907 41.5388L18.0621 41.6367L18.2438 41.7918L18.5132 42.0633L18.552 42.1429L18.5846 42.5001H18.5683L18.5438 42.6205H18.5356L18.5275 42.7429H18.5132L18.5193 42.7593H18.5132V42.7776H18.5275L18.5356 43.2654L18.5683 43.7022L18.6091 43.9369L18.6173 44.043H18.6336V44.0879L18.6438 44.2431L18.6581 44.3308H18.6663L18.6581 44.7329L18.7479 44.8533L18.7397 45.0023H18.7234L18.7071 45.1248H18.6907L18.6826 45.1941H18.6744L18.6499 45.3064L18.5601 45.3962L18.4703 45.3513V45.2288H18.4867L18.5132 45.0635L18.5438 44.8982V44.8451H18.5601L18.552 44.741L18.3479 44.5574L18.3315 44.4533H18.3479L18.3744 44.3553V44.2247H18.3826V44.1206H18.3968L18.3826 43.9634L18.3479 43.8859L18.3234 43.8083L18.2989 43.7716L18.2744 43.6593H18.2581L18.2519 43.3716L18.2438 43.196H18.2581V42.9083H18.2438V42.596H18.2581V42.447H18.2744L18.2254 42.1674H18.2091L18.1785 42.1062L18.0131 41.9408L17.8437 41.7673L17.6784 41.5571L17.6641 41.4796H17.6478L17.6396 41.4L17.6213 41.1918L17.558 41.0244L17.5396 40.8938H17.5254L17.4927 40.702L17.4682 40.6489L17.4355 40.5795L17.3049 40.3366H17.2968L17.2559 40.2754L17.1825 40.1346L17.158 40.0917L17.1008 40.0121H17.0845L17.0518 39.9264L17.0192 39.8141L17.011 39.7325H16.9947L16.9702 39.5059L16.9539 39.4039L16.9212 39.0631H16.9049L16.8722 38.9753L16.7906 38.81L16.7416 38.7038H16.7335L16.6926 38.6426L16.6212 38.514H16.613L16.5702 38.4344C16.3232 38.063 16.2599 37.8875 15.8354 37.5527L15.6477 37.3017H15.6415L15.5742 37.1874C15.2966 36.7282 14.9905 36.7323 14.8333 36.2445L14.67 35.9934H14.6557L14.3782 35.8363L13.97 35.6526L13.9598 35.575H13.9434L13.8945 35.4607C13.6904 35.4607 13.6516 35.2873 13.521 35.2158L13.1618 35.0158L13.0903 34.7893L13.1944 34.7464L13.3903 34.8505Z" fill="#F9F9F9"/>
<path d="M8.79091 42.7084L8.77458 42.9798H8.75825L8.75009 43.0574H8.74193L8.71743 43.3533L8.73376 43.388H8.7256L8.71743 43.7023H8.70111L8.66845 43.8248V43.8513L8.57048 43.886L8.46435 43.8432L8.39088 43.7023L8.36026 43.6595L8.3174 43.5717L8.27658 43.4574L8.19495 43.3452L8.18678 43.3186L7.99085 43.0492L7.95207 43.0043L7.86839 42.839L7.86023 42.7615H7.8439L7.77246 42.639L7.64796 42.6043L7.58265 42.5512L7.49489 42.4288L7.20915 42.1859C7.01322 42.1063 6.90709 41.9226 6.62952 41.9512L6.2948 42.0553V42.0798L5.86415 42.0634L5.85599 42.0369L5.86415 41.9063L6.19887 41.6022L6.36827 41.4695L6.62135 41.2777L6.84994 41.0511L7.11119 40.8409L7.31529 40.694C7.49489 40.6246 7.63368 40.5021 7.82961 40.4409L7.99085 40.4674L8.08269 40.5531L8.17045 40.6511L8.21127 40.7389L8.30108 40.8409L8.36639 40.9205L8.39904 40.9981L8.43986 41.1573H8.45619L8.49089 41.2532L8.52966 41.3634L8.56232 41.4614H8.57865L8.60314 41.5818L8.62763 41.6348L8.64396 41.6961L8.70111 42.0451H8.71743L8.74193 42.4737H8.75009L8.79091 42.6839L8.77458 42.7084H8.79091ZM8.96235 42.4982L8.94602 42.29L8.9052 42.0634H8.91337L8.88071 41.8532H8.86438L8.84806 41.6879H8.83173L8.8154 41.6104L8.79091 41.3838L8.75825 41.294H8.74193L8.69294 41.1042L8.66845 40.9899H8.65212L8.61947 40.8409L8.57865 40.7633L8.54599 40.6858L8.51334 40.6144L8.49089 40.5899L8.19495 40.3184L7.90921 40.1347C7.59898 40.047 7.39488 40.2735 7.21732 40.4143L7.04588 40.5531L6.70299 40.7021L6.61319 40.7899L6.52543 40.8776L6.39481 40.9899L6.22949 41.1205C6.05192 41.2083 5.96824 41.3838 5.80701 41.5042L5.73353 41.5818C5.57433 41.7532 5.43555 41.9389 5.27635 42.1165V42.1941H5.29268L5.30084 42.2471L5.41514 42.3961C5.74986 42.4818 6.07641 42.3676 6.3846 42.3165L6.73565 42.2471C6.93158 42.1941 6.99689 42.3512 7.12547 42.4206L7.31529 42.6125L7.53367 42.7615L7.54387 42.7962H7.5602C7.70307 43.0084 7.90105 43.1982 8.02554 43.4248L8.10514 43.5717H8.12147L8.1378 43.6248L8.17045 43.684H8.18678L8.22964 43.8064H8.24393L8.32557 43.9901L8.36639 44.0412L8.70111 44.2167L8.86438 44.131L8.88071 44.1126L8.88684 44.033L8.92153 43.6493H8.93786V43.4942H8.92153V43.2227H8.93786V43.1186H8.94602L8.95215 43.0125H8.97052L8.99501 42.839H9.00317L9.01134 42.7615H9.0195V42.6472L8.96235 42.4982Z" fill="#F9F9F9"/>
<path d="M14.5483 47.8102L14.4911 47.8714L14.2789 47.8347C14.0033 47.6224 13.7952 47.3347 13.5686 47.0693L13.5441 47.0428C13.44 46.9122 13.2033 46.8428 13.0073 46.8693L12.591 46.7816C12.3706 46.7285 12.1991 46.8591 11.995 46.8061L11.9215 46.704L11.9134 46.6938H11.9215L11.9297 46.5468L11.9869 46.4856L12.0869 46.406L12.191 46.3264L12.5093 46.0489V46.0305L12.5992 45.9182L12.8441 45.6549L12.9992 45.5264C13.138 45.3672 13.3012 45.2467 13.5441 45.1937L13.8217 45.1671L14.0829 45.3957L14.1319 45.457L14.1646 45.508L14.2462 45.7162H14.2625L14.287 45.7958L14.3115 45.8407L14.3524 45.9264L14.3768 46.057L14.3932 46.1774C14.4483 46.3713 14.383 46.6754 14.4483 46.8591L14.4748 46.9999H14.4911L14.5136 47.4H14.5238L14.5401 47.6082L14.5646 47.7327L14.5483 47.8102ZM14.8177 47.7408L14.783 47.4L14.7687 47.2347H14.7769L14.7524 47.1204L14.7442 47.0857L14.6707 46.7448H14.6626V46.704H14.6707V46.4326L14.6524 46.0754H14.6381L14.6218 45.9182L14.5973 45.857L14.5646 45.7692H14.5483L14.532 45.6631L14.5075 45.6223L14.4748 45.5509H14.4666L14.4422 45.4998L14.3687 45.4202L14.2054 45.2018L13.8625 44.8977L13.6176 44.8447C13.3747 44.7916 13.2686 44.9753 13.0727 45.0284V45.0365L12.8114 45.2284L12.4032 45.6305L12.3624 45.6998V45.7345L12.3297 45.7958L12.2971 45.857L12.0522 46.1529L11.8256 46.3366L11.7175 46.4938L11.6787 46.5713L11.5562 46.7203V46.8428L11.6032 46.9122C11.7338 47.0612 12.0358 47.1387 12.2644 47.0612L12.5502 47.0693L13.0135 47.0857L13.0216 46.9918H13.04L13.0482 47.0693H13.0318L13.0563 47.1387H13.1053L13.4053 47.2428V47.2591L13.5441 47.3836L13.5788 47.453L13.7176 47.6449L13.7482 47.6878L13.8788 47.8633H13.8952L14.034 48.0021L14.4258 48.1143L14.7605 48.0531L14.8177 47.9408H14.834V47.7408H14.8177Z" fill="#F9F9F9"/>
<path d="M40.7088 27.7079L40.717 27.7773L40.7741 28.0916L40.7986 28.1977L40.815 28.3528H40.8313L40.8721 28.5181H40.8884L40.9048 28.6937H40.9211L40.9374 28.7977H40.9537L40.9619 28.8671L41.0354 29.1386H41.0435L41.0517 29.2427L41.0844 29.4427H41.1007L41.117 29.5815H41.3497L41.3436 29.4692H41.3272L41.3211 29.3896L41.2966 29.2427H41.2783L41.2558 29.1386H41.2476L41.215 29.0325L41.1905 28.9202L41.1742 28.7283H41.1578L41.1313 28.6243H41.1252L41.0925 28.51L41.0844 28.3977L41.0599 28.3528L41.0007 28.0487L40.9946 27.9426H40.9782L40.9619 27.8303L40.9374 27.7691L40.9048 27.6834H40.8884L40.8721 27.5691H40.8558L40.8313 27.4446L40.766 27.2895L40.7333 27.1854H40.717L40.6762 27.0547L40.6435 26.9833L40.6109 26.9139L40.57 26.818H40.5619L40.5211 26.6261H40.5047L40.4639 26.4527L40.4312 26.3547L40.3986 26.2935H40.3823L40.3435 26.173L40.3088 26.0955L40.2516 25.9465L40.219 25.8587H40.2047L40.1618 25.675L40.1292 25.5975H40.1129L40.0822 25.475H40.0659L40.0231 25.3097L39.9904 25.2485L39.9577 25.1791H39.9435L39.9006 25.0566L39.87 24.9444L39.8353 24.8566L39.77 24.6893L39.7394 24.5954L39.6904 24.4709H39.674L39.6659 24.3852L39.6394 24.2892L39.6006 24.1055H39.5904L39.5659 23.977L39.5434 23.9321L39.5169 23.8545H39.5006L39.4781 23.7218H39.47L39.4516 23.6524L39.4291 23.53L39.3965 23.4341H39.3781L39.3393 23.3034L39.3046 23.2259L39.174 23.0157L39.0781 22.9034L38.9393 22.7013L38.9556 22.5462L38.9781 22.4401H38.9883L38.9781 22.3278L38.8985 22.134L38.8658 22.0482H38.8495L38.8332 21.9952H38.8168L38.776 21.9176H38.7597L38.7434 21.8645H38.727L38.6699 21.7605C38.3168 21.2849 38.1249 20.84 37.8474 20.3563L37.7657 20.1889H37.7474L37.6739 20.0685C37.4984 19.8521 37.3392 19.5991 37.1045 19.448L36.8922 19.2745L36.5983 19.3786L36.6473 19.5195L36.9657 19.7032L37.3086 19.9889L37.4637 20.1481L37.6902 20.3746L37.6167 20.4685L37.4963 20.591L37.4473 20.642L37.4229 20.6706L37.4473 20.7563L37.4718 20.7849L37.8045 20.9053V20.9216H37.8208C38.0433 21.189 38.2413 21.4788 38.4413 21.7686L38.474 21.8462H38.4903L38.6127 22.0482V22.1442H38.5964L38.5821 22.2585H38.5638L38.474 22.3891L38.4576 22.4054L38.4658 22.4483L38.5719 22.6401L38.7515 22.8258L38.7597 22.8503L38.9964 23.1218L39.0373 23.2075H39.0536L39.1352 23.4096L39.174 23.4606L39.2169 23.5912H39.2332L39.2577 23.7137L39.274 23.8443L39.3046 23.9933L39.3475 24.0708L39.3965 24.1668H39.4046L39.4291 24.2729H39.4434L39.47 24.4464H39.4618L39.4781 24.577H39.4944L39.5169 24.6811L39.5434 24.7342L39.5659 24.8566L39.6006 24.9444L39.6475 25.0138L39.6904 25.1179H39.7047L39.7394 25.2648C39.8149 25.475 39.9292 25.6771 40.0169 25.9016L40.0394 26.0424H40.0557L40.0822 26.1649L40.1292 26.3547H40.1476L40.1618 26.4772H40.1782L40.219 26.6261H40.2353L40.27 26.7221L40.3006 26.7915L40.3435 26.8894L40.3741 26.9751H40.3904L40.4741 27.1486L40.5211 27.2813L40.5537 27.3589H40.57L40.619 27.4976L40.6517 27.5772L40.6925 27.7079H40.7088Z" fill="#F9F9F9"/>
<path d="M15.9185 11.26V11.3478H15.9021L15.894 11.4254H15.8858L15.8613 11.5111L15.8123 11.5723L15.6735 11.7315L15.3633 11.6254L15.2735 11.5111L15.2266 11.4621L15.1919 11.3743L15.1674 11.3213L15.1347 11.1988H15.1531V11.111H15.1612L15.1674 10.9192L15.2266 10.8335L15.3062 10.7212L15.649 10.6396L15.8205 10.8069L15.8695 10.9478H15.8858L15.9266 11.1641L15.9348 11.26H15.9185ZM16.1226 11.058L16.0981 10.8498L16.0654 10.7906L16.0001 10.6926L15.9919 10.6763L15.9185 10.6069L15.7878 10.4824C15.649 10.3967 15.4531 10.4926 15.2735 10.4498L15.1266 10.562L15.0449 10.6682L14.9653 10.8498H14.9572L14.9306 10.9641H14.9143V11.1376H14.9306L14.9572 11.3743H14.9653L15.0061 11.5641L15.0368 11.6519H15.0531L15.1102 11.7825L15.2735 11.8111L15.7797 11.8621L15.8695 11.7907L15.9919 11.6172L16.0246 11.5641V11.5478L16.1144 11.3743H16.1307L16.1226 11.058Z" fill="#F9F9F9"/>
<path d="M29.0635 12.8908V12.899L28.9328 12.7683L28.8757 12.7173L28.7369 12.5336L28.7287 12.5071L28.4757 12.2703L28.2409 12.0724L27.9552 11.8172L27.9062 11.7478H27.8899L27.8817 11.7234L27.8328 11.6438L28.1675 11.8009C28.4675 12.1499 28.741 12.2683 29.0063 12.5581L29.0471 12.6806H29.0635L29.0798 12.8745L29.0635 12.8908ZM28.8675 13.746L28.7696 13.7215L28.7859 13.6766L28.9165 13.6317L28.9247 13.648L28.8675 13.746ZM22.0997 12.7602L22.0486 12.6397L22.2874 12.5499L22.318 12.7173L22.0997 12.7602ZM20.4914 12.8826L20.4179 12.9867L20.0607 13.2235L19.5301 13.4316C19.2219 13.4827 19.0096 13.6398 18.73 13.7296L18.3218 13.8419L17.8667 14.095L17.7605 14.1542C17.4687 14.2154 17.2054 14.3378 16.987 14.4868L16.4809 14.7052C16.0747 14.9787 15.6849 15.2828 15.4032 15.6992L15.2991 15.8114L14.9562 15.6992L14.8644 15.5522L14.8338 15.4808L14.7256 15.3502L14.7113 15.2971H14.695L14.6134 15.1767L14.5399 15.0379L14.4991 14.9318L14.4338 14.8113L14.4093 14.7052H14.3929L14.3603 14.6175L14.3521 14.5562H14.3358L14.3113 14.4174L14.2868 14.2766H14.2705L14.2623 14.1542L14.2542 13.746L14.2705 13.6153L14.2542 13.45V13.1439H14.2623L14.2868 13.0398V12.7255H14.2705V12.5152H14.2868L14.2623 12.3316H14.2542L14.2297 12.203H14.2133V12.0275L14.2705 11.9846L14.4644 11.8866L14.4991 11.8356L14.5481 11.7662V11.6091H14.5725V11.5295H14.5889L14.595 11.3723H14.6052L14.595 11.1907L14.5399 10.9212L14.4256 10.7804L14.2542 10.7192V10.5804H14.2623L14.2705 10.4845H14.2868L14.3031 10.3702H14.3195L14.5154 10.0314L14.5481 9.95382L14.5889 9.90076L14.6603 9.7681L14.7113 9.71503L14.7256 9.62931H14.744L14.7195 9.50685L14.695 9.47215L14.646 9.3946L14.6052 9.30684H14.6134V9.24561H14.6215C14.6052 9.01906 14.6603 8.81904 14.6215 8.60066L14.6379 8.59249L14.6297 8.54759H14.6379L14.6215 8.31288H14.6052L14.5889 8.18226H14.5725L14.5399 8.0251L14.5317 7.95571H14.5154L14.4991 7.82304H14.4827L14.4746 7.63324C14.4256 7.44139 14.4582 7.15361 14.4501 6.91685L14.4644 6.62908H14.4746L14.4991 6.55152V6.25354H14.5154L14.5399 6.08006H14.5481V5.93923L14.5807 5.9229L14.646 5.97596C14.7542 6.23925 14.8644 6.5005 15.0134 6.74133L15.0767 6.95972H15.0869L15.1256 7.10054H15.142L15.1767 7.16993L15.1828 7.20667L15.1991 7.32709L15.2073 7.33525H15.1991V7.58833H15.1828L15.1603 7.78223L15.1767 7.79039H15.1603L15.1767 7.79855H15.1603V7.85979H15.1767V7.88427H15.1603V8.05775H15.1522L15.142 8.24349H15.1256L15.142 8.5231H15.1256V8.67822H15.1114L15.1032 9.00069H15.095V9.23744H15.1114L15.1603 9.28847L15.3297 9.13131V9.09866H15.3379V8.90476L15.3644 8.60882V8.53126H15.3726L15.3644 8.29655V8.16389H15.3726L15.3787 7.99653H15.3951L15.4216 7.84142V7.65773H15.4298L15.4379 7.41485H15.4461L15.4379 7.40464H15.4461L15.4685 6.95155H15.4767L15.5032 6.7944V6.725H15.5175L15.542 6.60254H15.5502L15.5747 6.47192H15.5828L15.6073 6.2719H15.6257V5.99229H15.6073V5.86983H15.6257L15.6175 5.86167H15.6257L15.64 5.73921H15.6563L15.6726 5.59838H15.689L15.7134 5.48613H15.7216L15.7461 5.39224L15.7869 5.35551L15.9339 5.5392L15.9584 5.62696L16.0073 5.70451L16.04 5.76574L16.0808 5.89841H16.089L16.1298 5.97596L16.1543 6.06372L16.1788 6.12495L16.2033 6.28007H16.2114L16.2441 6.35967L16.2686 6.39233L16.3012 6.47192L16.3421 6.60254H16.3584L16.3747 6.70051H16.3911L16.4298 6.80256L16.5135 6.94339L16.5462 7.03931L16.5543 7.11687H16.5707L16.587 7.28423H16.6033L16.6196 7.53527C16.6339 7.8006 16.6482 8.10674 16.8299 8.31288L16.9789 8.47004C17.1074 8.61699 17.2381 8.75781 17.483 8.81088L17.8259 9.03743L18.0626 9.24561L18.1198 9.35786H18.1361L18.1687 9.41909C18.3075 9.67217 18.379 9.92117 18.5443 10.1436L18.6259 10.2294C19.0913 11.1315 18.9035 10.6845 19.5137 11.3029L19.6035 11.4356L19.7587 11.7397H19.7668L19.8076 11.8621L19.8403 11.9846H19.8566L19.8974 12.1418H19.9138L19.9464 12.2111L20.0117 12.3316L20.0362 12.3846L20.0444 12.4112L20.4914 12.6275L20.5342 12.803L20.4914 12.8826ZM14.148 11.7478L14.1072 11.6784L14.0827 11.3723L14.099 11.2417H14.1072L14.1337 11.1376L14.197 11.0315L14.2705 10.9376L14.3031 10.9825L14.344 11.0315L14.197 11.3111L14.2623 11.4009L14.3358 11.4682L14.3766 11.4968L14.3684 11.5988H14.3521L14.2786 11.705L14.148 11.7478ZM2.18587 38.2866L2.4961 38.0785C2.71448 37.9458 2.95327 37.8315 3.17166 37.6927L3.30228 37.7825L3.31045 37.8417L3.32677 38.0254L3.36147 38.2785H3.36759V38.5397H3.36147L3.3431 38.8622L3.36147 38.9418H3.36759L3.40025 39.0806L3.40841 39.1928H3.42474L3.4329 39.6133L3.46556 39.9623L3.49821 40.2296L3.50638 40.2419H3.49821L3.51454 40.2664H3.49821L3.50638 40.2827H3.49821L3.48189 40.4154L3.44107 40.4582L3.38392 40.4501L3.26146 40.2664L3.24513 40.2296L3.12268 40.0031L3.02675 39.8908L2.95327 39.7357H2.94307L2.8696 39.6133L2.83082 39.5765C2.76551 39.4398 2.56957 39.4275 2.38793 39.4398C2.16138 39.4643 1.98993 39.55 1.77767 39.6031L1.50826 39.7439L1.10007 39.9439L0.985775 39.9174L0.969447 39.848H0.977612L1.00414 39.6908L1.04292 39.6031L1.07558 39.55V39.4806L1.1266 39.4275L1.18171 39.2724H1.19191L1.21436 39.1928C1.70012 38.5111 1.52459 39.0051 1.95728 38.4785L2.18587 38.2866ZM24.6101 11.756L24.6366 11.7397L24.7488 11.6519H25.0836V11.705L24.9795 11.7927L24.6101 11.8458V11.756ZM37.5845 19.5974C37.3825 19.4137 37.1927 19.2137 37.0396 19.0035L36.9314 18.6647L36.809 18.5667L36.762 18.481L36.7212 18.3075L36.4028 17.8789C36.2089 17.7401 36.1089 17.5054 35.8824 17.3993L35.6129 17.1809L35.5558 17.0952L35.5783 17.0523L35.6272 16.9707V16.8421L35.2864 16.5707L35.1129 16.3951L34.6823 16.04C34.4782 15.942 34.2822 15.8298 34.0373 15.8298C33.8169 15.7339 33.5556 15.7073 33.3516 15.5685L32.9209 15.3665L32.5045 15.0991L32.3331 14.9583L32.3086 14.8358L32.7658 14.9399L33.0434 14.9236L33.0597 14.8113L33.0025 14.7317L32.6433 14.6358L32.2678 14.5828L31.9514 14.3378L32.0249 14.2848L32.5556 14.3827L32.7495 14.4174C32.9291 14.4603 33.1087 14.5481 33.3046 14.5236L33.6046 14.4338L33.5638 14.3562C33.1556 14.3215 32.8148 14.1297 32.4229 14.0786L32.0392 13.9276L32.2209 13.8317C32.4556 13.8072 32.6597 13.8847 32.8719 13.8847C33.2638 13.9276 33.6046 14.0582 33.9475 14.2072L34.372 14.4093L34.5027 14.3378V14.1991L34.3965 14.1113L34.0373 13.8419C33.8251 13.8847 33.721 13.6684 33.5005 13.7092C33.1658 13.6684 32.8393 13.5623 32.4903 13.597L32.0821 13.5357L32.0249 13.4582L32.0821 13.4051L32.4147 13.3806C32.5943 13.352 32.774 13.352 32.9617 13.3357C33.2393 13.2929 33.5638 13.3092 33.8414 13.3623L33.8904 13.3276V13.2398C33.5169 13.0745 33.0923 13.1704 32.6842 13.1337L32.1943 13.1622L32.1453 13.101L32.5045 12.899C32.7168 12.7785 32.9944 12.7602 33.1903 12.603C33.3862 12.5152 33.6128 12.5071 33.8251 12.4908L34.2414 12.1928L34.2741 12.1336L34.3822 11.9315L34.47 11.7846L34.4945 11.6274H34.5027L34.5108 11.5131L34.519 11.409L34.5435 11.1294L34.5516 10.8498L34.5761 10.8416L34.5516 10.658L34.5761 10.5539V10.2049L34.5598 10.1885C34.5516 10.013 34.5598 9.75177 34.5516 9.52522L34.5925 9.41909L34.5761 9.23744L34.5925 8.91293L34.6088 8.68638L34.6251 8.67822C34.6251 8.45983 34.6333 8.25982 34.6414 8.04959L34.6251 7.95571C34.568 7.65364 34.6149 6.82909 34.5516 6.48212L34.519 6.28823C34.5353 6.09638 34.4863 5.93922 34.5027 5.74737L34.47 5.66982L34.4863 5.47796L34.47 5.4698L34.4537 5.11263L34.4292 5.04324L34.3965 4.98201V4.77995L34.3822 4.77179L34.3557 4.51667L34.2986 4.39625L34.2822 4.22073L34.2577 4.03908L34.2414 3.81253V3.3676L34.2169 3.35944L34.2332 3.34106L34.2169 3.3329L34.2332 3.21044H34.2251L34.2169 2.92266L34.2006 2.91246L34.1863 2.6451C34.0802 2.08587 34.0496 1.52868 33.8659 0.987823L33.7944 0.761272C33.7046 0.559216 33.6944 0.255112 33.5475 0.0877533L33.3862 -7.62939e-06L32.9515 0.0979538L32.9046 0.193882L32.8393 0.263275L32.774 0.375526L32.7086 0.453087L32.6025 0.638817L32.4556 0.934757L32.3168 1.2307L32.2351 1.36948L32.1453 1.5348L32.0902 1.60624L32.0392 1.68379C31.9596 1.89401 31.7861 2.0328 31.6739 2.21649L31.5984 2.34915L31.4371 2.59203C30.8758 3.64721 30.3513 4.70648 29.8064 5.75758L29.7492 5.86167L29.7166 5.9678C29.388 7.41893 28.841 8.36187 28.1675 9.67421L28.1491 9.75177L28.0756 9.87219L28.1165 9.98648L28.1491 10.4763C28.2716 10.6661 28.4593 10.8335 28.5981 11.007L28.7696 11.2335C28.8492 11.5172 29.1227 11.756 29.0961 12.0724V12.1662L28.892 12.0642L28.6226 11.854C28.4675 11.6703 28.2409 11.5213 28.0022 11.4254C27.9062 11.3396 27.8246 11.1458 27.6368 11.2335L27.5633 11.3723L27.4899 11.4254L27.3756 11.5744C27.594 11.8009 27.9062 11.9581 28.1409 12.1662L28.4593 12.4459L28.7696 12.7949L29.039 12.9785L29.0635 13.0643L29.088 13.1867L29.0635 13.248L28.9982 13.301L28.8349 13.2133L28.5083 12.952L28.2899 12.752C28.1103 12.603 27.8899 12.5152 27.7021 12.3683L27.4062 12.4295L27.6021 12.6193C27.7838 12.7785 28.0205 12.8561 28.2063 13.0051L28.2634 13.1173L28.1756 13.101C27.7981 13.0643 27.4572 12.9275 27.0735 12.8826C26.8857 12.8908 26.747 12.7602 26.551 12.7867C26.3245 12.6642 26.0367 12.7336 25.8102 12.6193L25.7755 12.5785L25.6632 12.5152C25.4101 12.5581 25.1652 12.5499 24.906 12.5683L24.7325 12.5336L24.4407 12.401L24.4549 12.203C24.4876 11.9662 24.7978 12.1132 24.9203 11.9581C25.1754 11.9499 25.3448 11.7478 25.5979 11.7478L25.6632 11.6172L25.2795 11.5744L25.2958 11.5376L25.3693 11.4682L25.7755 11.3111L25.7367 11.2335L25.5652 11.26L25.2632 11.3825C25.0448 11.3723 24.855 11.4172 24.6366 11.4254L24.4876 11.3294L24.3264 11.5499C24.2713 11.6825 24.4162 11.758 24.2937 12.0805L24.2447 12.454L23.9978 12.5152C23.7386 12.5683 23.4773 12.5499 23.2242 12.6112L22.8018 12.6724L22.7262 12.401L22.7181 12.2458L22.7446 12.0724L22.7589 12.0642L22.7446 11.6968L22.7589 11.6438L22.7446 11.5825L22.7589 11.4254L22.8018 11.3478L22.8181 11.209L22.8324 11.0437L22.8487 10.9212L22.8242 10.8498L22.7834 10.6661L22.7364 10.5539L22.7262 10.3273L22.318 10.0559L22.0588 9.85586C21.8772 9.50685 21.9058 9.28642 21.9935 8.91293L22.0262 8.83537L22.0833 8.72311C22.2078 8.39248 22.3323 8.07 22.418 7.72916L22.4405 7.58017L22.5405 7.12503H22.5487L22.5568 7.03931L22.5875 6.86583C22.7466 6.3413 22.963 5.8535 23.1365 5.33918L23.1834 5.22489L23.1997 5.13712C23.659 3.84518 24.0325 3.48801 24.7019 2.43487L24.9938 2.0777L25.1897 1.89402L25.2795 1.97974C25.3877 2.3614 25.4509 2.75326 25.5244 3.13901L25.5081 3.62885L25.4918 3.63701L25.5407 3.74314C25.5897 4.1248 25.6367 4.50442 25.655 4.88609L25.6632 5.19019C25.7163 5.43919 25.7367 5.52491 25.7755 5.79228L25.8102 5.88616V6.14128L25.8265 6.14944C25.8101 6.376 25.8591 6.55152 25.8428 6.77807L25.8591 6.89848L25.8979 7.01278V7.32709L25.8673 7.47404L25.8591 7.69242L25.8428 7.76182L25.8265 7.9802L25.8102 7.99653L25.802 8.20675L25.8102 8.42513L25.8265 8.4782L25.8591 8.55576L25.8755 8.81904L25.8979 8.8966L25.9326 8.97416L25.9489 9.12315L25.9796 9.21091L25.9979 9.58645H25.9898L25.9714 9.75993L25.8265 10.1089C25.6714 10.309 25.4428 10.5008 25.1407 10.4926L24.7182 10.6947L24.506 10.9029L24.4876 11.0233L24.5284 11.0845L24.5366 11.2172L24.6284 11.2703C24.806 11.2172 24.9938 11.1907 25.1754 11.1294L25.4428 11.0764L25.7367 11.0233L25.3203 10.8927L25.1407 10.9029L25.1244 10.8498L25.5326 10.6314C25.7122 10.5171 25.8836 10.3967 26.0367 10.2498L26.1204 10.1008C26.2755 9.94158 26.2245 9.58645 26.2183 9.37827V9.22928L26.1939 9.10682L26.1592 8.97416V8.32104L26.1449 8.31288L26.102 8.17205V7.6414L26.1285 7.63324V7.44139L26.1449 7.11687L26.1285 7.02094L26.0877 6.89032V6.31477L26.102 6.3066L26.0877 6.22701C26.1306 5.74738 25.9979 5.29224 25.9796 4.82485L25.9632 4.69423C25.8571 4.384 25.9612 4.284 25.8428 4.03908L25.8265 3.82886L25.7857 3.7064C25.8102 3.51659 25.7612 3.35943 25.7755 3.15942L25.753 3.00226C25.6897 2.20832 25.5591 2.25119 25.4591 1.68379L25.4183 1.57154L25.0672 1.56338L24.8978 1.75319L24.6284 2.00831L24.6019 2.04097L24.5876 2.13893L24.5366 2.22466L24.4243 2.37364L24.2019 2.73082L24.0325 2.94103C23.7161 3.22269 23.6937 3.56353 23.3793 3.94315L23.363 4.03908L23.314 4.15133C23.1467 4.71056 22.8507 5.18815 22.7262 5.71268L22.6364 5.89841L22.6221 5.99229L22.5711 6.11475L22.5323 6.16578C22.3548 6.80869 22.1548 6.96992 22.0833 7.71079L22.0588 7.89448L22.0262 7.95571C22.0017 8.47004 21.4874 9.15172 21.6915 9.62931L21.7323 9.73544L21.7813 9.82932L21.8874 10.013C22.0099 10.2212 22.2793 10.2396 22.467 10.3886L22.6364 10.5294L22.4915 10.8151L22.2446 10.711C21.9935 10.6661 21.8221 10.4845 21.618 10.3783L21.1526 10.2212L20.9751 10.3008L21.1873 10.4845C21.3833 10.5008 21.569 10.5702 21.6915 10.7029L21.52 10.8682L21.3976 11.0233L21.8547 11.0519C22.067 11.1131 22.3364 11.0682 22.5058 11.2417L22.467 11.3723L21.9527 11.4172L21.7098 11.505L21.6751 11.5662L21.9752 11.5499L22.4262 11.5662L22.4487 11.7478L22.3446 11.8621C22.1405 11.907 21.9282 11.9315 21.7323 11.9846L21.6751 12.0968L21.7894 12.1336L22.2629 11.9928L22.4323 12.0356V12.2111L22.2711 12.3846L21.9037 12.5683L21.4486 12.752L21.1139 12.9439L20.9261 12.9602L20.9404 12.7683L20.9567 12.6642L20.9322 12.5499L20.9016 12.454L20.6649 12.3316L20.2485 12.254L20.2322 12.1744L20.1995 12.054L20.0526 11.6519L20.0281 11.6091L19.9546 11.4682C19.8811 11.209 19.6689 11.06 19.4974 10.8763L19.1872 10.6314C18.6606 9.95586 18.6463 9.62727 18.2096 9.00885L17.8177 8.65168C17.5075 8.53943 17.2054 8.39044 17.0115 8.13736L16.9952 8.0251L16.9789 7.91081L16.938 7.79855L16.9299 7.53527L16.887 7.38832V7.36179L16.9033 7.1781L16.8727 7.09238L16.838 7.02094L16.8074 6.88216L16.7645 6.82909L16.7176 6.65561L16.6768 6.60254L16.6258 6.47192L16.538 6.33313L16.4951 6.19435L16.489 6.08006L16.44 5.99229L16.3012 5.62696L16.1543 5.37184L16.1135 5.25142L16.0808 5.13712L16.04 5.05957L15.9747 4.87588L15.9339 4.80853L15.7563 4.76363L15.64 4.87588C15.4277 5.18611 15.3849 6.29231 15.3073 6.56784L15.2257 6.60254L15.1175 6.41273C14.9746 6.09842 14.8726 5.85555 14.7603 5.5392L14.5807 5.30244L14.4501 5.33102L14.4093 5.44327L14.3766 5.61063L14.3521 5.72288L14.3195 5.9229L14.2868 6.04536L14.2623 6.45355L14.246 6.46376V6.65561L14.2133 6.82909V7.24749L14.2297 7.25565L14.2133 7.30872V7.65773L14.2297 7.66793L14.246 7.93734C14.3031 8.1292 14.3562 8.31084 14.4093 8.50473L14.3848 8.68638C14.4093 8.91293 14.3603 9.10682 14.3766 9.33337L14.3929 9.47215H14.3991V9.73544C13.9215 10.5804 14.0684 10.3416 13.9439 11.0519L13.9378 11.3213L13.9113 11.3396L13.9378 11.4764C13.9419 11.754 14.0052 12.0846 14.0337 12.3846L14.0684 12.5255C14.0684 12.7255 14.0501 12.8377 14.0582 13.0479L14.0337 13.0561L14.0174 13.1867C13.9419 13.5949 13.9133 14.0113 14.0684 14.4093L14.1337 14.6971H14.1399L14.1888 14.8807L14.3358 15.2277L14.4256 15.4114L14.5644 15.6645L14.3521 15.9176L14.1725 16.1176L14.0419 16.0829L14.0337 16.1094L13.9847 16.0829L13.8133 16.2298L13.7725 16.0829L13.7909 15.9012L13.6684 15.8298L13.5214 16.0482L13.4296 16.2747L13.3806 16.3706C13.0439 16.6299 12.9296 17.1462 12.6642 17.5054L12.5744 17.6258L12.5418 17.7238C12.4356 17.9932 12.2907 18.2361 12.1683 18.4973L12.0377 18.7076L11.9805 18.8668L11.9213 18.9443C11.4723 19.6015 11.1968 20.3587 11.0825 21.1669L11.0417 21.2894L11.0253 21.5425H11.0172L11.007 21.6302L10.9927 21.716L10.96 21.7956L10.9437 22.0221L10.9029 22.0997L10.6498 22.4568L10.4212 22.5895L10.111 22.7283C9.71094 22.7977 9.33744 22.9548 8.97007 23.0855L8.82312 23.1977C8.56187 23.2079 8.43329 23.4079 8.25981 23.5386V23.5651L8.21082 23.6447L8.19654 23.7733L8.13735 23.8876L8.12306 24.159V24.3243L8.13735 24.4386L8.16184 24.5672L8.15368 24.804L8.07204 24.9795L7.91897 25.353L7.86182 25.5877L7.84549 25.6244L7.71487 25.8959L7.6067 25.8755L7.33117 25.8836V25.8755L7.09441 25.7632L6.77602 25.8326L6.79235 25.9551L6.90664 26.0163L7.35362 26.1469L7.68017 26.3041L7.7312 26.4L7.77202 26.5572V26.8449L7.75365 26.9245L7.69854 27.0021C7.45362 27.0347 7.22503 27.1062 6.99644 27.1592C6.70254 27.2368 6.45763 27.3858 6.17189 27.4797L5.71471 27.6899L5.70859 27.8042L5.75757 27.9266L6.17189 27.8042L6.68009 27.5613C7.00461 27.4715 7.29851 27.2899 7.64956 27.2531L7.69854 27.3327L7.72303 27.4389L7.69854 27.5695L7.66588 27.647L7.64956 27.743L7.6067 27.8124L7.57608 27.943L7.55975 28.0756L7.5271 28.1348L7.48424 28.2655L7.15972 28.492L7.03727 28.6675L7.46995 28.6226L7.64956 28.7981L7.66588 28.99L7.69854 29.0778L7.7312 29.1818L7.77202 29.2431L7.78834 29.4247L7.81896 29.5043L7.84549 29.6268L7.87611 29.7043L7.9108 29.8105L7.96795 29.8982L7.92713 30.0207C7.76385 30.0982 7.58425 30.1758 7.38831 30.1942L7.08625 30.3064L6.96379 30.4126L6.93113 30.5513L6.96379 30.7779L6.98828 30.8554L6.96379 30.8636L6.79235 31.1004L6.65356 31.3983L6.54131 31.5963L6.31068 31.9127L6.04943 32.0515L5.6841 32.3984L5.56164 32.5658L5.53715 32.6352L5.50449 32.7148L5.45347 32.8005L5.13712 33.0719L5.02282 33.2822C4.94118 33.5332 4.65749 33.6291 4.53503 33.8475C4.47584 34.0394 4.23093 34.0557 4.14929 34.2231C3.93907 34.3537 3.80844 34.5455 3.62067 34.6925L3.31861 34.9292L3.02675 35.068L3.14717 35.2782L2.9696 35.5232C2.77367 35.6436 2.63488 35.7926 2.51242 35.9681L2.37364 36.1416L2.38793 36.2191L2.45324 36.4375L2.42262 36.4906L2.12668 36.8294L2.03892 36.9518L1.90013 37.1784L1.87564 37.3008L1.91646 37.3702L1.90013 37.5192L1.72869 37.7621L1.63072 37.9213L1.54092 38.0499L1.53276 38.1723L1.49194 38.3295L1.44295 38.4867L1.13477 38.8438L1.06946 38.9418L1.03476 39.0275L0.791882 39.3765L0.700038 39.5867L0.685751 39.6378L0.661259 39.7684L0.626564 39.8561L0.595949 39.9786L0.569415 40.197L0.561252 40.5093L0.538802 40.5623L0.569415 40.6766L0.365319 40.9297C0.232656 41.3726 0.189795 41.2746 0.0652951 41.5828L0.0959104 41.6359C0.234697 41.8828 0.134688 42.5319 0.00814805 42.787L-1.52588e-05 42.9523L0.0816237 43.0054L0.155099 42.8747L0.187754 42.7176L0.204081 42.5768L0.244901 42.5074L0.277557 42.4135L0.310212 42.2727L0.293885 41.9583L0.32654 41.8624L0.365319 41.7481L0.416343 41.644L0.522473 41.5053V41.3828L0.512268 41.2705L0.538802 41.1909L0.822497 40.8419L1.00414 40.6501L1.05109 40.5705V40.5378L0.912299 40.3011L0.961283 40.2664C1.17354 40.197 1.36948 40.0562 1.60623 40.0398C1.83482 39.9337 2.0879 39.699 2.36547 39.848L2.77979 40.1786L2.8696 40.3113L2.90429 40.4052L2.93491 40.4929L3.23697 40.7807L3.53087 40.7378L3.67782 40.5011L3.71048 40.3807L3.74313 40.2664L3.78395 40.1705V39.5867L3.75742 39.4275L3.74313 39.3071L3.7268 39.0887H3.71048V37.9213L3.67782 37.8152L3.637 37.7192L3.62067 37.6335L3.49005 37.3968L3.00022 37.4927L2.91858 37.5641L2.4961 37.7907C2.32261 37.8764 2.20016 38.0601 2.00626 38.0703L2.07974 37.8601L2.14505 37.6845L2.1777 37.5539L2.19199 37.3886C2.37364 37.2764 2.50426 37.1008 2.69203 36.9886L2.72264 36.909L2.54508 36.8906L2.42262 36.9171L2.46956 36.8396L2.77979 36.4906C3.01654 36.3763 3.10635 36.1661 3.28595 36.011L3.35127 35.766L3.14717 35.7497V35.7048C3.88192 35.068 3.80436 34.6598 4.8922 33.9618L5.33305 33.5169C5.51266 33.5087 5.53715 33.325 5.67594 33.2618C5.92698 32.9577 6.3617 32.8801 6.69438 32.6352C6.99645 32.4515 7.33933 32.3658 7.69854 32.2964L8.23736 32.1555L8.50473 32.1025L8.52105 32.2964L8.64555 32.3372C8.89659 32.478 9.19049 32.6005 9.50684 32.5739C9.68849 32.5046 9.98035 32.4699 10.1191 32.6168C10.3232 32.6699 10.4294 32.8434 10.6498 32.8719L10.9927 32.9862L11.3274 33.2454L11.5948 33.4801C11.7417 33.6475 11.9866 33.7067 12.1172 33.9006L12.4377 34.1088L12.7214 34.2659C12.9255 34.3618 13.0643 34.5374 13.2847 34.6149L13.4561 34.5782L13.35 34.3537L12.9418 34.1435L12.4377 33.8291C12.2234 33.7067 12.0111 33.5597 11.8499 33.4026L11.4641 33.0719L11.0417 32.7658C10.8294 32.7311 10.6416 32.6086 10.4375 32.5474C10.2763 32.4964 10.1457 32.3821 9.96402 32.3474L9.55787 32.329L9.19866 32.1719C9.01089 32.2168 9.00272 32.0066 8.83944 31.9821C8.63535 31.9637 8.41492 31.9372 8.20266 31.9637C7.98428 31.9372 7.83733 32.1474 7.62302 32.0515C7.44546 32.0596 7.29035 32.1474 7.1189 32.1555C6.89032 32.2433 6.68009 32.329 6.48416 32.4699L6.16577 32.6352L5.82288 32.7148L5.83921 32.6005C5.96167 32.3739 6.23108 32.3045 6.40864 32.1106L6.48416 32.1025L6.70254 31.8514L6.7352 31.7453L6.77602 31.6861L6.92297 31.5106L7.1434 31.1881L7.4373 30.9085L7.51077 30.733L7.62302 30.5677L7.66588 30.4126C7.81896 30.2717 8.05775 30.2799 8.24552 30.2105L8.2843 30.1411L8.16184 29.9493L8.23736 29.7125C8.05979 29.0512 7.73324 28.7492 7.81896 27.9083L7.86182 27.8287L7.87611 27.7083L7.9108 27.6123L7.92713 27.5001L7.96795 27.4021V27.2123L8.00061 27.0633L8.03326 26.7919L8.07204 26.7061V26.5041L8.03326 26.4L8.00061 26.2775L8.01489 26.1714L8.04959 26.0061L8.04142 25.904H8.04959L8.05775 25.7979C8.29042 25.3918 8.16388 25.4448 8.31083 25.153L8.51493 24.8999L8.45778 24.7244L8.40676 24.5162L8.38431 24.061L8.58636 23.5753L8.8721 23.4977L9.23744 23.7039C9.47623 23.7488 9.59052 23.9753 9.7538 24.0896L9.79462 24.159L9.91504 24.359L9.97219 24.506L9.94974 24.5427V24.804L10.0232 24.8836L10.2334 24.8142V24.4549L10.1844 24.3243L10.1457 24.21L10.0722 24.0712C9.94157 23.9141 9.80279 23.7488 9.62318 23.6345L9.50684 23.5386L9.18233 23.3222L9.50072 23.1202L9.62318 23.1651L9.63747 23.2508C9.82728 23.4528 10.0069 23.112 10.2334 23.1732L10.2906 23.2875V23.3834L10.462 23.3916L11.007 23.4263C11.2376 23.5569 10.8784 23.5998 10.9192 23.7569L11.3845 23.9059L11.36 23.9835L11.3111 24.061L11.3274 24.1406L11.6029 24.2386L11.6948 24.159L11.4805 23.9508L11.5233 23.7937L11.5376 23.7835L11.5233 23.7243L11.2376 23.3304L11.156 23.2181L10.8865 23.1202L10.6906 22.963L10.7233 22.7201L11.156 22.3711L11.2764 22.4323L11.3988 22.3874L11.4152 22.3364L11.4335 22.0384L11.4641 21.9874L11.4805 21.8405L11.5233 21.6813L11.5376 21.5527L11.5723 21.4996L11.5948 21.3588L11.6295 21.2731L11.6029 21.1322L11.4805 21.22L11.4499 21.2976L11.4335 21.42L11.3988 21.5159L11.3274 21.8303L11.2866 21.9425L11.2764 21.865L11.3111 21.7609V21.5323L11.3274 21.5241L11.3417 21.1669L11.3764 21.0629C11.4805 20.6791 11.4784 20.2424 11.7193 19.9199L11.8642 19.6403L12.0274 19.2484C12.3622 18.6729 12.6928 17.8422 13.0296 17.3034L13.1541 17.0687L13.2602 16.9625L13.252 17.1809L13.35 17.2585L13.4459 17.0687L13.5684 16.7727L13.6174 16.6748L13.6766 16.589L13.799 16.5462L13.9194 16.6829L14.1072 16.5972L14.4093 16.2053L14.4419 16.1523L14.4746 16.0747L14.7113 15.84L15.1767 15.9012L15.1991 15.942L15.242 16.1094L15.4951 15.9951C15.6257 15.7951 15.8114 15.6379 15.9584 15.4543C16.2196 15.2277 16.44 14.9848 16.7564 14.8113L16.838 14.8277L17.134 14.7828C17.3381 14.593 17.6483 14.5236 17.8748 14.3746C18.0381 14.2256 18.2912 14.1725 18.4953 14.0684C18.6749 13.9807 18.8872 13.9807 19.0566 13.8949C19.3668 13.8153 19.6035 13.6235 19.8893 13.5276C20.126 13.4827 20.2975 13.3174 20.5485 13.3276C20.7791 13.2847 20.9914 13.1704 21.2261 13.1439C21.4486 13.1173 21.6506 13.0051 21.8711 13.0398L22.1793 12.9602C22.3752 12.8663 22.5977 12.899 22.8181 12.8745C22.9956 12.8132 23.2099 12.8214 23.3957 12.7867C23.6406 12.6989 23.861 12.8561 24.1059 12.8296C24.806 12.752 25.5081 12.8745 26.1673 12.9969C26.4367 13.0745 26.747 13.0398 27.0164 13.1255L27.2205 13.1541L27.4572 13.1867L27.5797 13.352L27.5552 13.4419L27.7981 13.6684L27.5062 13.8153L27.498 13.9031C27.6674 14.0174 27.9144 13.946 28.1165 13.9643L28.4838 13.9888L28.8512 13.9725L28.9737 14.146L29.1206 14.1725L29.1696 14.095L29.1859 13.9643L29.2186 13.7623C29.3696 13.3031 29.2961 12.6724 29.3819 12.254V11.8621C28.3369 9.63747 28.0103 10.8723 29.1124 8.58433L29.1696 8.43534C29.1818 7.99245 29.6206 7.54139 29.6247 7.1781L29.6513 7.01278L29.7084 6.90869L29.7329 6.75153H29.7492L29.7554 6.6801C30.4472 4.58606 31.8882 2.46344 32.9372 0.559216L33.1658 0.255112L33.4822 0.289806L33.5169 0.7327L33.5332 0.740864L33.574 0.889854L33.621 1.00415L33.6557 1.09191L33.6944 1.22253L33.7128 1.37969L33.7434 1.56338L33.7679 1.79809L33.8006 1.92871V2.14709L33.8169 2.16343L33.8414 2.4859H33.8516L33.8659 2.77367C33.921 2.89001 33.9618 3.18799 34.0128 3.26351V3.50026L34.0292 3.50842V4.2493L34.0475 4.26563L34.0618 4.37992L34.0945 4.46769L34.121 4.59014L34.1516 4.80853V5.1208L34.1863 5.20856L34.2088 5.39224L34.2414 5.53103L34.2577 5.71268L34.2986 5.76574L34.2741 5.81677L34.2986 6.01066L34.3067 6.52499L34.3312 6.53315L34.3475 7.01278L34.372 7.20667H34.3822L34.3639 7.23116C34.3557 7.64344 34.4639 8.07613 34.4292 8.33737L34.421 8.69659L34.3965 8.70475V8.90476L34.3639 9.04559V9.28847L34.3475 9.29663L34.3312 9.58645L34.3475 9.85586V10.3539L34.3067 10.4681L34.3312 10.5967V10.8253L34.3067 10.8416V11.1294L34.2986 11.3213L34.2577 11.4254L34.2414 11.5988L34.2088 11.7234L34.1516 11.907C33.9965 12.1499 33.6781 12.2377 33.3699 12.2458C33.1903 12.2377 33.0679 12.3765 32.9046 12.401C32.7168 12.4908 32.4964 12.5071 32.2862 12.5581C32.0739 12.6397 31.8943 12.803 31.778 12.9867L31.7392 13.0826C31.7861 14.1868 31.2473 14.6583 31.2412 15.2461L31.3289 15.3257L31.5432 15.1685L31.582 15.0991L31.6167 14.993L31.9086 15.0705C32.1453 15.1236 32.3249 15.2542 32.4964 15.3951C32.8393 15.5849 33.1556 15.84 33.5475 15.9339L33.6944 15.9951C33.8822 16.0216 34.0292 16.1278 34.2169 16.1604C34.4618 16.3278 34.7864 16.3951 34.9823 16.6237L34.9598 16.736L34.6823 16.7809L34.5435 16.885L34.9027 17.0952L35.4742 17.4177C35.7905 17.5218 36.013 17.7565 36.1905 17.983L36.2314 18.0973L36.1661 18.1341C36.0028 18.0728 35.8232 17.9932 35.6354 18.0116L35.4742 18.1238L35.7007 18.2463C36.0191 18.3157 36.3212 18.4729 36.5253 18.681L36.8437 18.9953L37.1355 19.3015L37.3559 19.5444L37.5519 19.7627H37.6498L37.5845 19.5974Z" fill="#F9F9F9"/>
<path d="M15.6644 10.9503L15.697 11.0033L15.7052 11.238L15.7134 11.3768L15.697 11.3952L15.4929 11.4564L15.4195 11.4034L15.3786 11.3156L15.3052 11.0727L15.3643 11.0033V10.9748L15.4521 10.9339L15.6644 10.9503Z" fill="#F9F9F9"/>
</g>
<defs>
<clipPath id="clip0_726_229">
<rect width="100" height="48.1143" fill="white"/>
</clipPath>
</defs>
</svg>
